<?xml version="1.0" encoding="UTF-8" standalone="no"?>
<svg
   width="27"
   height="27"
   viewBox="0 0 216 216"
   version="1.1"
   id="svg1"
   xmlns:xlink="http://www.w3.org/1999/xlink"
   xmlns="http://www.w3.org/2000/svg"
   xmlns:svg="http://www.w3.org/2000/svg">
  <defs
     id="defs1">
    <linearGradient
       id="linearGradient11">
      <stop
         style="stop-color:#0ea5e9;stop-opacity:0.43620701;"
         offset="0"
         id="stop11" />
      <stop
         style="stop-color:#0ea5e9;stop-opacity:0;"
         offset="1"
         id="stop12" />
    </linearGradient>
    <linearGradient
       id="linearGradient9">
      <stop
         style="stop-color:#0ea5e9;stop-opacity:0.43620701;"
         offset="0"
         id="stop9" />
      <stop
         style="stop-color:#0ea5e9;stop-opacity:0;"
         offset="1"
         id="stop10" />
    </linearGradient>
    <linearGradient
       id="linearGradient6">
      <stop
         style="stop-color:#0ea5e9;stop-opacity:0.32581088;"
         offset="0"
         id="stop6" />
      <stop
         style="stop-color:#0ea5e9;stop-opacity:0.16982006;"
         offset="1"
         id="stop7" />
    </linearGradient>
    <linearGradient
       xlink:href="#linearGradient6"
       id="linearGradient7"
       x1="7.6399999"
       y1="21.639999"
       x2="13.4"
       y2="15.84"
       gradientUnits="userSpaceOnUse"
       gradientTransform="matrix(8,0,0,8,-28,-20.007222)" />
    <linearGradient
       xlink:href="#linearGradient9"
       id="linearGradient10"
       x1="26.170691"
       y1="21.926174"
       x2="15.370911"
       y2="12.931084"
       gradientUnits="userSpaceOnUse"
       gradientTransform="matrix(8,0,0,8,-28,-20.007222)" />
    <linearGradient
       xlink:href="#linearGradient11"
       id="linearGradient12"
       x1="15.289583"
       y1="5.2049642"
       x2="15.564897"
       y2="19.39315"
       gradientUnits="userSpaceOnUse"
       gradientTransform="matrix(8,0,0,8,-28,-20.007222)" />
  </defs>
  <g
     id="g13"
     transform="translate(8,0.00370553)">
    <path
       fill="currentColor"
       d="m 193.76,49.652778 -88,-48.1799999 a 12,12 0 0 0 -11.52,0 l -88,48.1799999 a 12,12 0 0 0 -6.24,10.52 v 95.640002 a 12,12 0 0 0 6.24,10.52 l 88,48.18 a 11.95,11.95 0 0 0 11.52,0 l 88,-48.18 a 12,12 0 0 0 6.24,-10.52 V 60.172778 a 12,12 0 0 0 -6.24,-10.52 M 98.08,8.4927781 a 3.94,3.94 0 0 1 3.84,0 l 86.75,47.4999999 -38.17,20.89 a 4,4 0 0 0 -0.58,-0.4 l -88,-48.18 z M 100,104.49278 11.33,55.992778 l 42.23,-23.13 88.67,48.54 z m -89.92,54.8 a 4,4 0 0 1 -2.08,-3.5 V 63.282778 l 88,48.160002 v 94.91 z m 179.84,0 -85.92,47 v -94.85 l 40,-21.890002 v 42.440002 a 4,4 0 0 0 8,0 V 85.172778 l 40,-21.89 v 92.530002 a 4,4 0 0 1 -2.08,3.5 z"
       id="path1"
       style="fill:#0ea5e9;fill-opacity:1" />
    <path
       style="opacity:1;fill:url(#linearGradient7);fill-opacity:1;stroke-width:0.32"
       d="m 5.0843752,56.342778 c -3.6393208,1.636153 -5.2188264,5.745072 -4.7682864,9.542496 0.03144,29.607896 -0.285496,59.218416 0.02136,88.824716 -0.155112,3.96935 1.137288,8.31987 4.8357032,10.34966 14.039506,8.42996 28.577889,16.00192 42.87756,23.97854 14.75608,8.01888 29.40968,16.25916 44.255544,24.09341 4.563152,2.23063 10.544584,-0.99397 11.177154,-6.03734 0.47904,-9.66994 0.17384,-19.39419 0.28928,-29.0846 -0.0288,-22.28962 0.002,-44.58923 -0.14192,-66.87244 -0.064,-4.05346 -3.49171,-6.7506 -6.917258,-8.22439 C 68.42204,87.467658 40.184493,71.903242 11.859776,56.531862 9.7103544,55.478369 7.3018472,55.510569 5.0843752,56.342778 Z"
       id="path3" />
    <path
       id="path4"
       style="opacity:1;fill:url(#linearGradient12);fill-opacity:1;stroke-width:0.32"
       d="M 99.671872,0.36777814 C 94.44956,0.80534614 90.126816,4.2163285 85.531248,6.4146533 76.307888,11.530111 66.94432,16.433849 57.890624,21.836529 c -1.258888,0.872804 -2.145688,2.096189 -2.671872,3.468749 -1.617848,-0.329266 -3.303091,-0.157439 -4.890627,0.4375 -14.257974,7.770556 -28.527453,15.540376 -42.7187498,23.421875 -4.6101504,2.565402 -5.1756168,9.81565 -0.9062504,12.953125 5.1318202,3.357168 10.7432292,5.957576 16.0625002,9.031248 24.547041,13.373816 48.950151,27.043416 73.687503,40.062504 3.48904,1.7868 7.352962,0.2356 10.421872,-1.67188 13.10177,-7.06145 26.24774,-14.045472 39.15625,-21.45312 1.37361,-0.896032 2.34583,-2.208192 2.90625,-3.687504 3.10246,0.5788 6.25574,-1.023336 8.90625,-2.640624 11.63311,-6.413792 23.41786,-12.617032 34.90625,-19.265624 4.33704,-2.82032 4.52642,-9.779073 0.34376,-12.8125 C 183.97997,44.264582 174.51929,39.419157 165.26562,34.227153 145.6886,23.594211 126.29138,12.611237 106.53125,2.3209029 104.38921,1.2696797 102.11525,0.26101254 99.671872,0.36777814 Z" />
    <path
       style="opacity:1;fill:url(#linearGradient10);fill-opacity:1;stroke-width:0.32"
       d="m 189.58313,55.944028 c -7.12679,3.329363 -13.86179,7.487262 -20.83268,11.146326 -6.98398,3.932936 -14.18215,7.536848 -21.03265,11.674832 -1.86342,0.5048 -1.89703,3.786224 -3.72082,3.400144 -4.22173,-0.14008 -7.56561,3.001896 -11.24724,4.643688 -10.92686,6.005264 -21.96116,11.855536 -32.780236,18.031792 -3.504872,2.07822 -3.933384,6.45144 -3.65556,10.13384 -0.02,30.41569 -0.16952,60.84111 -0.1076,91.25073 0.0448,5.17849 5.805596,9.0713 10.619436,7.19427 8.47496,-4.09669 16.58493,-8.95158 24.90744,-13.36178 20.59219,-11.36946 41.38456,-22.38779 61.75931,-34.14447 3.55726,-1.75252 6.15089,-5.3121 6.0825,-9.36625 0.46224,-18.43499 0.0996,-36.88352 0.17064,-55.32373 -0.0874,-12.732618 0.0856,-25.485618 -0.16408,-38.205514 -0.2684,-4.894058 -5.32137,-8.299081 -9.99837,-7.073878 z"
       id="path6" />
  </g>
</svg>
