<svg width="117" height="24" viewBox="0 0 117 24" fill="none" xmlns="http://www.w3.org/2000/svg">
<path d="M33.6168 18.9464C36.5563 18.9464 38.6278 17.3464 38.6278 14.7264C38.6278 11.8664 36.2999 11.1264 34.11 10.4264C32.0189 9.78641 31.4862 9.32641 31.4862 8.46641C31.4862 7.66641 32.157 7.06641 33.3012 7.06641C34.7019 7.06641 35.4516 7.80641 35.9448 8.86641L38.2332 7.52641C37.306 5.56641 35.5699 4.38641 33.3012 4.38641C30.9338 4.38641 28.7637 5.90641 28.7637 8.54641C28.7637 11.2064 30.8154 12.1064 32.9264 12.7264C34.9781 13.3264 35.9053 13.7264 35.9053 14.7664C35.9053 15.5464 35.3332 16.2464 33.6958 16.2464C31.9794 16.2464 31.0127 15.4064 30.5195 14.1064L28.1916 15.4864C28.9413 17.5664 30.7957 18.9464 33.6168 18.9464Z" fill="black"/>
<path d="M45.6384 11.1464V8.66641H43.4091V5.86641L40.8642 6.64641V8.66641H39.1478V11.1464H40.8642V15.3064C40.8642 18.0064 42.0676 19.0664 45.6384 18.6664V16.3264C44.1785 16.4064 43.4091 16.3864 43.4091 15.3064V11.1464H45.6384Z" fill="black"/>
<path d="M54.6212 8.66641V9.84641C53.911 8.94641 52.8456 8.38641 51.4055 8.38641C48.7816 8.38641 46.6115 10.6864 46.6115 13.6664C46.6115 16.6464 48.7816 18.9464 51.4055 18.9464C52.8456 18.9464 53.911 18.3864 54.6212 17.4864V18.6664H57.1661V8.66641H54.6212ZM51.879 16.4864C50.3204 16.4864 49.1565 15.3464 49.1565 13.6664C49.1565 11.9864 50.3204 10.8464 51.879 10.8464C53.4572 10.8464 54.6212 11.9864 54.6212 13.6664C54.6212 15.3464 53.4572 16.4864 51.879 16.4864Z" fill="black"/>
<path d="M64.1692 18.9464C66.1025 18.9464 67.7794 17.9064 68.6277 16.3464L66.4182 15.0664C66.0236 15.8864 65.1753 16.3864 64.1494 16.3864C62.6304 16.3864 61.5059 15.2464 61.5059 13.6664C61.5059 12.0664 62.6304 10.9264 64.1494 10.9264C65.1556 10.9264 66.0039 11.4464 66.3984 12.2664L68.5883 10.9664C67.7794 9.42641 66.1025 8.38641 64.1692 8.38641C61.1705 8.38641 58.9609 10.6864 58.9609 13.6664C58.9609 16.6464 61.1705 18.9464 64.1692 18.9464Z" fill="black"/>
<path d="M79.0684 18.6664L74.9847 13.6064L78.95 8.66641H75.9119L72.5186 13.0664V4.66641H69.9737V18.6664H72.5186V14.1264L76.1092 18.6664H79.0684Z" fill="black"/>
<path d="M88.8021 11.4064C89.611 10.7464 90.1042 9.80641 90.1042 8.60641C90.1042 6.26641 88.23 4.66641 85.9021 4.66641H80.4571V18.6664H86.3163C88.7035 18.6664 90.6171 17.0064 90.6171 14.6064C90.6171 13.1464 89.9069 12.0464 88.8021 11.4064ZM85.9021 7.24641C86.7701 7.24641 87.3817 7.90641 87.3817 8.78641C87.3817 9.66641 86.7504 10.3264 85.9021 10.3264H83.1796V7.24641H85.9021ZM86.3163 16.0864H83.1796V12.7864H86.3163C87.2436 12.7864 87.9143 13.4864 87.9143 14.4264C87.9143 15.3864 87.2436 16.0864 86.3163 16.0864Z" fill="black"/>
<path d="M92.2835 18.6664H94.8284V4.06641H92.2835V18.6664Z" fill="black"/>
<path d="M98.4204 7.46641C99.2884 7.46641 99.9986 6.74641 99.9986 5.88641C99.9986 5.02641 99.2884 4.28641 98.4204 4.28641C97.572 4.28641 96.8618 5.02641 96.8618 5.88641C96.8618 6.74641 97.572 7.46641 98.4204 7.46641ZM97.1578 18.6664H99.7027V8.66641H97.1578V18.6664Z" fill="black"/>
<path d="M107.674 11.1464V8.66641H105.445V5.86641L102.9 6.64641V8.66641H101.184V11.1464H102.9V15.3064C102.9 18.0064 104.103 19.0664 107.674 18.6664V16.3264C106.214 16.4064 105.445 16.3864 105.445 15.3064V11.1464H107.674Z" fill="black"/>
<path d="M112.508 16.2464L116.691 10.3864V8.66641H109.292V11.0864H113.258L109.095 16.9464V18.6664H116.888V16.2464H112.508Z" fill="black"/>
<path d="M6.47663 14.8067C6.5425 14.6122 6.39785 14.4105 6.19248 14.4105H0.405357C0.147951 14.4105 0.0100717 14.1076 0.179108 13.9135L11.297 1.14535C11.5128 0.897442 11.9128 1.12717 11.8074 1.43853L9.05137 9.58111C8.98553 9.77562 9.13018 9.97729 9.33553 9.97729H15.1234C15.3808 9.97729 15.5187 10.2802 15.3496 10.4743L4.23044 23.2405C4.01455 23.4884 3.61464 23.2586 3.72007 22.9473L6.47663 14.8067Z" fill="#0085E6"/>
<g style="mix-blend-mode:overlay">
<path d="M6.95022 14.967C7.12587 14.4483 6.74013 13.9105 6.19248 13.9105H0.844702L11.0092 2.23726L8.57776 9.42081C8.4022 9.9395 8.78793 10.4773 9.33553 10.4773H14.684L4.51839 22.1487L6.95022 14.967ZM11.6741 1.47369C11.674 1.47376 11.6739 1.47382 11.6739 1.47389L11.6741 1.47369L11.5232 1.34235L11.6741 1.47369Z" fill="url(#paint0_radial_2414_3491)"/>
<path d="M6.95022 14.967C7.12587 14.4483 6.74013 13.9105 6.19248 13.9105H0.844702L11.0092 2.23726L8.57776 9.42081C8.4022 9.9395 8.78793 10.4773 9.33553 10.4773H14.684L4.51839 22.1487L6.95022 14.967ZM11.6741 1.47369C11.674 1.47376 11.6739 1.47382 11.6739 1.47389L11.6741 1.47369L11.5232 1.34235L11.6741 1.47369Z" stroke="white" stroke-opacity="0.28"/>
<path d="M6.95022 14.967C7.12587 14.4483 6.74013 13.9105 6.19248 13.9105H0.844702L11.0092 2.23726L8.57776 9.42081C8.4022 9.9395 8.78793 10.4773 9.33553 10.4773H14.684L4.51839 22.1487L6.95022 14.967ZM11.6741 1.47369C11.674 1.47376 11.6739 1.47382 11.6739 1.47389L11.6741 1.47369L11.5232 1.34235L11.6741 1.47369Z" stroke="url(#paint1_linear_2414_3491)"/>
</g>
<defs>
<radialGradient id="paint0_radial_2414_3491" cx="0" cy="0" r="1" gradientUnits="userSpaceOnUse" gradientTransform="translate(11.8933 -1.60227) rotate(101.297) scale(27.5376 17.7769)">
<stop offset="0.0426961" stop-color="#82F7FF"/>
<stop offset="0.384728" stop-color="#31DAF1"/>
<stop offset="0.672119" stop-color="#0DA8EA"/>
<stop offset="1" stop-color="#00507D"/>
</radialGradient>
<linearGradient id="paint1_linear_2414_3491" x1="7.76444" y1="0.781594" x2="7.76444" y2="24.3857" gradientUnits="userSpaceOnUse">
<stop stop-color="white"/>
<stop offset="0.557292" stop-color="white" stop-opacity="0"/>
</linearGradient>
</defs>
</svg>
